<svg width="60" height="102" viewBox="0 0 60 102" fill="none" xmlns="http://www.w3.org/2000/svg">
<path d="M7.94141 4.86572L17.2692 15.3305M51.7245 4.86572L42.3967 15.3305L51.7245 4.86572ZM29.7911 1.25V15.3305V1.25Z" stroke="#40024A" stroke-width="2.5" stroke-linecap="round" stroke-linejoin="round"/>
<path d="M53.4688 29.5805L50.0527 34.7045L49.3965 35.6879L50.3428 36.3979L53.625 38.8588H5.75L9.38184 36.4379L10.501 35.6918L9.6748 34.6303L5.74805 29.5805H53.4688Z" fill="#D3C7D5" stroke="#D3C7D5" stroke-width="2.5"/>
<mask id="path-3-inside-1_3487_7513" fill="white">
<rect y="38.4197" width="59.6664" height="63.0248" rx="2"/>
</mask>
<rect y="38.4197" width="59.6664" height="63.0248" rx="2" fill="white" stroke="#40024A" stroke-width="5" mask="url(#path-3-inside-1_3487_7513)"/>
<path d="M1.33203 72.6184V41.5665C1.33203 40.2871 2.37239 39.25 3.65573 39.25H56.8189C57.6546 39.25 58.332 39.9414 58.332 40.7943V97.1614C58.332 98.8672 56.9772 100.25 55.3058 100.25H4.35824C2.68691 100.25 1.33203 98.8672 1.33203 97.1614V85.6213V82.4905M1.33203 79.3227V75.845" stroke="#40024A" stroke-width="2.5" stroke-linecap="round"/>
<path d="M2.40247 39.3283V29.9056C2.40247 29.0382 3.03351 28.3351 3.81193 28.3351L55.9616 28.3351C56.7401 28.3351 57.3711 29.0382 57.3711 29.9056V39.3283" stroke="#40024A" stroke-width="2.5"/>
<path d="M42.8453 56.4119C41.3274 56.4119 40.0969 57.6423 40.0969 59.1602C40.0969 60.678 41.3274 61.9084 42.8453 61.9084C44.3632 61.9084 45.5938 60.678 45.5938 59.1602C45.5938 57.6423 44.3632 56.4119 42.8453 56.4119Z" fill="#E8F0FE" stroke="#40024A" stroke-width="2.5" stroke-linecap="round"/>
<path d="M16.9313 56.4119C15.4133 56.4119 14.1828 57.6423 14.1828 59.1602C14.1828 60.678 15.4133 61.9084 16.9313 61.9084C18.4492 61.9084 19.6797 60.678 19.6797 59.1602C19.6797 57.6423 18.4492 56.4119 16.9313 56.4119Z" fill="#E8F0FE" stroke="#40024A" stroke-width="2.5" stroke-linecap="round"/>
<path d="M17.3246 81.0454C17.3246 74.1067 22.9498 68.4818 29.8889 68.4818C36.8279 68.4818 42.4531 74.1067 42.4531 81.0454" stroke="#40024A" stroke-width="2.5" stroke-linecap="round"/>
<path d="M3.23554 29.1127L8.76385 34.5695C9.09415 34.8956 9.0976 35.4276 8.77155 35.7579C8.71513 35.8151 8.6508 35.8638 8.58053 35.9027L2.40234 39.3231" stroke="#40024A" stroke-width="2.5" stroke-linecap="round"/>
<path d="M56.6755 29.168L51.3854 34.5633C51.0605 34.8947 51.0657 35.4267 51.3971 35.7517C51.4524 35.8059 51.515 35.8522 51.583 35.8893L57.875 39.3215" stroke="#40024A" stroke-width="2.5" stroke-linecap="round"/>
</svg>
